# xmcd CD database file
#
# Track frame offsets:
#	150
#	20440
#	38522
#	60020
#	83604
#	112634
#	148900
#	189062
#	212258
#	234942
#	260996
#	282198
#	302256
#	327068
#
# Disc length: 4600 seconds
#
# Revision: 0
# Processed by: cddbd v1.5.2PL0 Copyright (c) Steve Scherf et al.
# Submitted via: CDex 1.51
#
DISCID=9f11f60e
DTITLE=Jan Akkerman - Minor Details
DYEAR=2011
DGENRE=Jazz
TTITLE0=Free Wheeling
TTITLE1=Big Sir
TTITLE2=Dinner Time
TTITLE3=Love Train
TTITLE4=Blind Baby
TTITLE5=Minor Details
TTITLE6=Joy
TTITLE7=Fernando's mMinibar
TTITLE8=Kharmah Chantalah
TTITLE9=Searchinh for Angela
TTITLE10=As Long as you're Near
TTITLE11=San Frisky
TTITLE12=The Arrogant Frogs
TTITLE13=Mena Muria
EXTD=YEAR: 2011
EXTT0=
EXTT1=
EXTT2=
EXTT3=
EXTT4=
EXTT5=
EXTT6=
EXTT7=
EXTT8=
EXTT9=
EXTT10=
EXTT11=
EXTT12=
EXTT13=
PLAYORDER=
